<mxfile host="app.diagrams.net" modified="2023-11-07T10:19:34.009Z" agent="Mozilla/5.0 (Windows NT 10.0; Win64; x64) AppleWebKit/537.36 (KHTML, like Gecko) Chrome/118.0.0.0 Safari/537.36" etag="0JPjfAV3aXcQRMiuzlyr" version="22.0.8" type="github">
  <diagram name="Page-1" id="5TMuLy_jbHsO5aYYoRPd">
    <mxGraphModel dx="600" dy="328" grid="1" gridSize="10" guides="1" tooltips="1" connect="1" arrows="1" fold="1" page="1" pageScale="1" pageWidth="827" pageHeight="1169" math="0" shadow="0">
      <root>
        <mxCell id="0" />
        <mxCell id="1" parent="0" />
        <mxCell id="V8ENOgdOyjMROd51RPrx-1" value="" style="whiteSpace=wrap;html=1;aspect=fixed;fillStyle=auto;fillColor=none;" vertex="1" parent="1">
          <mxGeometry x="210" y="100" width="470" height="470" as="geometry" />
        </mxCell>
        <mxCell id="V8ENOgdOyjMROd51RPrx-2" value="" style="rounded=0;whiteSpace=wrap;html=1;" vertex="1" parent="1">
          <mxGeometry x="380" y="120" width="50" height="20" as="geometry" />
        </mxCell>
        <mxCell id="V8ENOgdOyjMROd51RPrx-3" value="" style="rounded=0;whiteSpace=wrap;html=1;" vertex="1" parent="1">
          <mxGeometry x="440" y="120" width="50" height="20" as="geometry" />
        </mxCell>
        <mxCell id="V8ENOgdOyjMROd51RPrx-4" value="" style="rounded=0;whiteSpace=wrap;html=1;" vertex="1" parent="1">
          <mxGeometry x="500" y="120" width="50" height="20" as="geometry" />
        </mxCell>
        <mxCell id="V8ENOgdOyjMROd51RPrx-5" value="" style="rounded=0;whiteSpace=wrap;html=1;" vertex="1" parent="1">
          <mxGeometry x="560" y="120" width="50" height="20" as="geometry" />
        </mxCell>
        <mxCell id="V8ENOgdOyjMROd51RPrx-6" value="" style="rounded=0;whiteSpace=wrap;html=1;" vertex="1" parent="1">
          <mxGeometry x="620" y="120" width="50" height="20" as="geometry" />
        </mxCell>
        <mxCell id="V8ENOgdOyjMROd51RPrx-9" value="" style="ellipse;whiteSpace=wrap;html=1;aspect=fixed;" vertex="1" parent="1">
          <mxGeometry x="240" y="110" width="60" height="60" as="geometry" />
        </mxCell>
        <mxCell id="V8ENOgdOyjMROd51RPrx-10" value="" style="rounded=1;whiteSpace=wrap;html=1;" vertex="1" parent="1">
          <mxGeometry x="230" y="180" width="430" height="90" as="geometry" />
        </mxCell>
        <mxCell id="V8ENOgdOyjMROd51RPrx-11" value="" style="whiteSpace=wrap;html=1;aspect=fixed;" vertex="1" parent="1">
          <mxGeometry x="480" y="290" width="160" height="160" as="geometry" />
        </mxCell>
        <mxCell id="V8ENOgdOyjMROd51RPrx-12" value="" style="rounded=0;whiteSpace=wrap;html=1;" vertex="1" parent="1">
          <mxGeometry x="230" y="500" width="430" height="60" as="geometry" />
        </mxCell>
        <mxCell id="V8ENOgdOyjMROd51RPrx-13" value="" style="rounded=0;whiteSpace=wrap;html=1;" vertex="1" parent="1">
          <mxGeometry x="260" y="300" width="120" height="60" as="geometry" />
        </mxCell>
        <mxCell id="V8ENOgdOyjMROd51RPrx-14" value="" style="rounded=0;whiteSpace=wrap;html=1;" vertex="1" parent="1">
          <mxGeometry x="260" y="400" width="120" height="60" as="geometry" />
        </mxCell>
        <mxCell id="V8ENOgdOyjMROd51RPrx-15" value="" style="rounded=0;whiteSpace=wrap;html=1;" vertex="1" parent="1">
          <mxGeometry x="210" y="640" width="190" height="400" as="geometry" />
        </mxCell>
        <mxCell id="V8ENOgdOyjMROd51RPrx-16" value="" style="rounded=0;whiteSpace=wrap;html=1;" vertex="1" parent="1">
          <mxGeometry x="210" y="640" width="190" height="40" as="geometry" />
        </mxCell>
        <mxCell id="V8ENOgdOyjMROd51RPrx-17" value="" style="endArrow=none;html=1;rounded=0;" edge="1" parent="1">
          <mxGeometry width="50" height="50" relative="1" as="geometry">
            <mxPoint x="220" y="650" as="sourcePoint" />
            <mxPoint x="240" y="650" as="targetPoint" />
          </mxGeometry>
        </mxCell>
        <mxCell id="V8ENOgdOyjMROd51RPrx-20" value="" style="endArrow=none;html=1;rounded=0;" edge="1" parent="1">
          <mxGeometry width="50" height="50" relative="1" as="geometry">
            <mxPoint x="240" y="659.71" as="sourcePoint" />
            <mxPoint x="220" y="659.71" as="targetPoint" />
          </mxGeometry>
        </mxCell>
        <mxCell id="V8ENOgdOyjMROd51RPrx-21" value="" style="endArrow=none;html=1;rounded=0;" edge="1" parent="1">
          <mxGeometry width="50" height="50" relative="1" as="geometry">
            <mxPoint x="220" y="670" as="sourcePoint" />
            <mxPoint x="240" y="670" as="targetPoint" />
          </mxGeometry>
        </mxCell>
      </root>
    </mxGraphModel>
  </diagram>
</mxfile>
